<svg xmlns="http://www.w3.org/2000/svg"
 xmlns:xlink="http://www.w3.org/1999/xlink"
 width="17px" height="14px"  viewBox="0 0 17 14">
<path fill-rule="evenodd"  fill="#848292"
 d="M9.313385,11.685059 C8.922455,11.291992 8.922455,10.653809 9.313385,10.259766 C9.313385,10.259766 13.271973,6.2714844 13.271973,6.2714844 C13.662903,5.8779297 14.2969055,5.8779297 14.687988,6.2714844 C15.0789795,6.665039 15.0789795,7.3032227 14.687988,7.6967773 C14.687988,7.6967773 10.729492,11.685059 10.729492,11.685059 C10.338379,12.079102 9.704407,12.079102 9.313385,11.685059 ZM13.271973,7.6967773 C13.271973,7.6967773 9.313385,3.7080078 9.313385,3.7080078 C8.922455,3.3144531 8.922455,2.6762695 9.313385,2.2827148 C9.704407,1.8891602 10.338379,1.8891602 10.729492,2.2827148 C10.729492,2.2827148 14.687988,6.2714844 14.687988,6.2714844 C15.0789795,6.665039 15.0789795,7.3032227 14.687988,7.6967773 C14.2969055,8.09082 13.662903,8.09082 13.271973,7.6967773 ZM13.9713745,7.9682617 C13.9713745,7.9682617 2.0024414,7.9682617 2.0024414,7.9682617 C1.4515381,7.9682617 1.0047607,7.520508 1.0047607,6.96875 C1.0047607,6.4160156 1.4515381,5.9682617 2.0024414,5.9682617 C2.0024414,5.9682617 13.9713745,5.9682617 13.9713745,5.9682617 C14.522278,5.9682617 14.968903,6.4160156 14.968903,6.96875 C14.968903,7.520508 14.522278,7.9682617 13.9713745,7.9682617 Z"/>
</svg>