<svg xmlns="http://www.w3.org/2000/svg"
 xmlns:xlink="http://www.w3.org/1999/xlink"
 width="79px" height="80px"  viewBox="0 0 79 80">
<path fill-rule="evenodd"  fill="#ffbf1d"
 d="M57.388306,19.764526 C55.82843,19.764526 54.559418,21.029541 54.559418,22.584106 C54.559418,24.138916 55.82843,25.403687 57.388306,25.403687 C58.94815,25.403687 60.217224,24.138916 60.217224,22.584106 C60.217224,21.029541 58.94815,19.764526 57.388306,19.764526 ZM57.388306,23.813965 C56.70807,23.813965 56.154724,23.262085 56.154724,22.58435 C56.154724,21.906372 56.70807,21.354858 57.388306,21.354858 C58.06848,21.354858 58.621918,21.906372 58.621918,22.58435 C58.621918,23.262451 58.06842,23.813965 57.388306,23.813965 ZM47.039368,20.506836 C46.569916,20.506836 46.18799,20.887451 46.18799,21.355347 C46.18799,21.823242 46.569916,22.20398 47.039368,22.20398 C47.50885,22.20398 47.89081,21.823242 47.89081,21.355347 C47.89081,20.887451 47.50885,20.506836 47.039368,20.506836 ZM29.834839,38.397217 C29.365326,38.397217 28.983475,38.777588 28.983475,39.245728 C28.983475,39.713623 29.365326,40.09436 29.834839,40.09436 C30.304276,40.09436 30.686203,39.713623 30.686203,39.245728 C30.686203,38.777588 30.3042,38.397217 29.834839,38.397217 ZM19.345337,44.44519 C18.875824,44.44519 18.493896,44.825684 18.493896,45.293823 C18.493896,45.76172 18.875824,46.142456 19.345337,46.142456 C19.814774,46.142456 20.196701,45.76172 20.196701,45.293823 C20.196701,44.825684 19.814774,44.44519 19.345337,44.44519 ZM64.87109,37.594482 C65.12521,37.95337 64.61719,37.235718 64.87109,37.594482 C64.87109,37.594482 64.87109,37.594482 64.87109,37.594482 ZM64.87109,37.594482 C64.617096,37.235718 64.11957,37.150146 63.7594,37.403442 C63.150726,37.831787 62.26892,38.302246 61.309998,38.75598 C61.1557,38.77893 61.0141,38.846558 60.90045,38.946777 C59.520355,39.578857 58.04077,40.16028 57.011505,40.52234 C50.749756,42.724854 43.53517,44.718506 36.147247,46.28772 C28.37854,47.937866 20.982605,48.988037 14.758926,49.324707 C14.3190155,49.34851 13.981796,49.723145 14.0056,50.16162 C14.028717,50.58557 14.380585,50.913574 14.801346,50.913574 C14.815918,50.913574 14.830643,50.91333 14.845291,50.912476 C16.50232,50.82312 18.234573,50.683594 20.023285,50.4989 C20.039154,50.52539 30.152222,63.696655 30.152222,63.696655 C30.542847,64.204956 31.373993,64.047485 31.55191,63.434204 C31.55191,63.434204 36.07904,47.936523 36.113297,47.92932 C36.113297,47.92932 39.5775,62.729614 39.5775,62.729614 C39.717728,63.329224 40.49562,63.54602 40.926987,63.102295 C40.926987,63.102295 45.093094,58.81775 45.093094,58.81775 C45.093094,58.81775 50.90271,60.78882 50.90271,60.78882 C51.48407,60.986206 52.076202,60.451538 51.936584,59.855713 C51.936584,59.855713 48.48651,45.116333 48.48651,45.116333 C48.48651,45.116333 59.308563,56.81299 59.308563,56.81299 C59.768463,57.309937 60.62793,57.01648 60.68933,56.34619 C60.68933,56.34619 62.176758,40.105103 62.176758,40.105103 C63.129517,39.647705 64.023224,39.164062 64.67914,38.70276 C65.03931,38.449463 65.12521,37.95337 64.87109,37.594482 ZM30.458313,61.479004 C30.458313,61.479004 21.868149,50.294556 21.868149,50.294556 C25.82544,49.827515 30.022217,49.15161 34.27957,48.3042 C34.27957,48.3042 30.458313,61.479004 30.458313,61.479004 ZM50.05664,58.8219 C50.05664,58.8219 45.12918,57.149902 45.12918,57.149902 C44.837128,57.051147 44.514023,57.128662 44.299255,57.349243 C44.299255,57.349243 40.799118,60.949097 40.799118,60.949097 C40.799118,60.949097 37.673355,47.59485 37.673355,47.59485 C40.764328,46.918457 43.861633,46.15796 46.897903,45.326782 C46.897903,45.326782 50.05664,58.8219 50.05664,58.8219 ZM59.26422,54.418945 C59.26422,54.418945 50.02939,44.437744 50.02939,44.437744 C52.611633,43.678345 55.1308,42.870117 57.54236,42.02185 C58.264557,41.767944 59.35443,41.352905 60.50598,40.860718 C60.50598,40.860718 59.26422,54.418945 59.26422,54.418945 ZM63.431946,32.181885 C63.396393,31.74414 63.01178,31.418823 62.57257,31.45337 C60.722046,31.602417 58.879333,31.282104 56.835266,30.880005 C43.542953,28.267822 27.771698,22.855103 16.656204,17.09082 C16.265274,16.88794 15.783707,17.039307 15.580307,17.428955 C15.376984,17.818481 15.529037,18.298828 15.919662,18.50122 C17.34674,19.24121 18.84996,19.975708 20.413681,20.698975 C20.413681,20.698975 14.315277,34.23816 14.315277,34.23816 C14.061371,34.801758 14.550186,35.44214 15.162064,35.349976 C15.162064,35.349976 21.081024,34.459106 21.081024,34.459106 C21.081024,34.459106 24.503113,39.536743 24.503113,39.536743 C24.845901,40.045288 25.641342,39.977783 25.892883,39.419067 C25.892883,39.419067 32.154938,25.516968 32.154938,25.516968 C32.35605,25.590576 32.557312,25.663696 32.75911,25.73645 C32.82625,26.828735 33.98767,42.19409 33.98767,42.19409 C34.040848,42.86963 34.90564,43.171143 35.368744,42.671387 C35.368744,42.671387 46.93315,30.195068 46.93315,30.195068 C47.18103,30.26184 47.428528,30.327393 47.675873,30.3927 C47.675873,30.3927 45.81476,40.793457 45.81476,40.793457 C45.738464,41.220337 46.032272,41.63977 46.46013,41.7157 C46.88791,41.791748 47.309143,41.49939 47.385437,41.072754 C47.385437,41.072754 49.224854,30.792603 49.224854,30.792603 C51.710205,31.420776 54.15735,31.974976 56.526276,32.44043 C57.18982,32.5708 57.848907,32.695435 58.505493,32.79956 C58.505493,32.79956 57.674866,36.913208 57.674866,36.913208 C57.590515,37.33069 57.86264,37.749878 58.27881,37.84485 C58.710876,37.94336 59.15149,37.660156 59.23883,37.227173 C59.23883,37.227173 60.091553,33.00354 60.091553,33.00354 C60.608154,33.052002 61.124146,33.079956 61.640106,33.079956 C61.99341,33.079956 62.347107,33.067017 62.700897,33.038452 C63.140198,33.00305 63.4675,32.61963 63.431946,32.181885 ZM25.026337,37.46106 C25.026337,37.46106 22.123886,33.15442 22.123886,33.15442 C21.952072,32.89917 21.648346,32.765503 21.34256,32.811768 C21.34256,32.811768 16.369644,33.56006 16.369644,33.56006 C16.369644,33.56006 21.865173,21.359497 21.865173,21.359497 C24.650436,22.606812 27.606598,23.816406 30.656525,24.962036 C30.656525,24.962036 25.026337,37.46106 25.026337,37.46106 ZM35.4355,40.256348 C35.4355,40.256348 34.33481,26.296265 34.33481,26.296265 C37.914062,27.55017 41.575714,28.704956 45.20166,29.720215 C45.20166,29.720215 35.4355,40.256348 35.4355,40.256348 ZM27.279068,25.762451 C27.214828,25.327759 26.809555,25.02771 26.373383,25.091919 C26.373383,25.091919 22.650848,25.639282 22.650848,25.639282 C22.214981,25.703247 21.913773,26.107422 21.978165,26.54187 C22.036758,26.93689 22.37741,27.22107 22.766357,27.22107 C22.805115,27.22107 22.84433,27.218262 22.88385,27.212402 C22.88385,27.212402 26.606384,26.66504 26.606384,26.66504 C27.042175,26.601074 27.343384,26.1969 27.279068,25.762451 ZM25.977493,29.002686 C25.913177,28.567993 25.507523,28.268066 25.071808,28.331787 C25.071808,28.331787 21.349274,28.87915 21.349274,28.87915 C20.91333,28.94336 20.612122,29.34729 20.676514,29.781738 C20.735031,30.177124 21.075684,30.460815 21.46463,30.460815 C21.503387,30.460815 21.542526,30.45813 21.5822,30.452515 C21.5822,30.452515 25.304733,29.905151 25.304733,29.905151 C25.740524,29.840942 26.041733,29.437012 25.977493,29.002686 ZM44.58429,48.00769 C44.239365,47.73462 43.737274,47.79248 43.463684,48.136353 C43.463684,48.136353 41.125504,51.075073 41.125504,51.075073 C40.851685,51.41919 40.90959,51.91919 41.25482,52.191895 C41.401382,52.30786 41.57625,52.36438 41.749893,52.36438 C41.985107,52.36438 42.217957,52.26111 42.375427,52.06311 C42.375427,52.06311 44.713608,49.124756 44.713608,49.124756 C44.987427,48.78064 44.92952,48.28064 44.58429,48.00769 ZM45.86023,51.258057 C45.515152,50.984985 45.01329,51.042847 44.739624,51.38672 C44.739624,51.38672 42.401367,54.32544 42.401367,54.32544 C42.127625,54.669556 42.18553,55.169556 42.53076,55.44226 C42.677322,55.558228 42.85211,55.614746 43.025833,55.614746 C43.26097,55.614746 43.49382,55.511475 43.65129,55.313477 C43.65129,55.313477 45.989548,52.375122 45.989548,52.375122 C46.263214,52.031006 46.20546,51.53076 45.86023,51.258057 ZM1.0,1.9998779 C1.0,1.9998779 2.9999695,1.9998779 2.9999695,1.9998779 C2.9999695,1.9998779 2.9999695,14.0 2.9999695,14.0 C2.9999695,14.0 1.0,14.0 1.0,14.0 C1.0,14.0 1.0,1.9998779 1.0,1.9998779 ZM12.9999695,1.9998779 C12.9999695,1.9998779 12.9999695,3.999878 12.9999695,3.999878 C12.9999695,3.999878 1.0,3.999878 1.0,3.999878 C1.0,3.999878 1.0,1.9998779 1.0,1.9998779 C1.0,1.9998779 12.9999695,1.9998779 12.9999695,1.9998779 ZM77.99997,78.999756 C77.99997,78.999756 76.0,78.999756 76.0,78.999756 C76.0,78.999756 76.0,66.99988 76.0,66.99988 C76.0,66.99988 77.99997,66.99988 77.99997,66.99988 C77.99997,66.99988 77.99997,78.999756 77.99997,78.999756 ZM66.0,78.999756 C66.0,78.999756 66.0,77.0 66.0,77.0 C66.0,77.0 77.99997,77.0 77.99997,77.0 C77.99997,77.0 77.99997,78.999756 77.99997,78.999756 C77.99997,78.999756 66.0,78.999756 66.0,78.999756 ZM77.99997,1.9998779 C77.99997,1.9998779 76.0,1.9998779 76.0,1.9998779 C76.0,1.9998779 76.0,14.0 76.0,14.0 C76.0,14.0 77.99997,14.0 77.99997,14.0 C77.99997,14.0 77.99997,1.9998779 77.99997,1.9998779 ZM66.0,1.9998779 C66.0,1.9998779 66.0,3.999878 66.0,3.999878 C66.0,3.999878 77.99997,3.999878 77.99997,3.999878 C77.99997,3.999878 77.99997,1.9998779 77.99997,1.9998779 C77.99997,1.9998779 66.0,1.9998779 66.0,1.9998779 ZM1.0,78.999756 C1.0,78.999756 2.9999695,78.999756 2.9999695,78.999756 C2.9999695,78.999756 2.9999695,66.99988 2.9999695,66.99988 C2.9999695,66.99988 1.0,66.99988 1.0,66.99988 C1.0,66.99988 1.0,78.999756 1.0,78.999756 ZM12.9999695,78.999756 C12.9999695,78.999756 12.9999695,77.0 12.9999695,77.0 C12.9999695,77.0 1.0,77.0 1.0,77.0 C1.0,77.0 1.0,78.999756 1.0,78.999756 C1.0,78.999756 12.9999695,78.999756 12.9999695,78.999756 Z"/>
</svg>