<svg xmlns="http://www.w3.org/2000/svg"
 xmlns:xlink="http://www.w3.org/1999/xlink"
 width="80px" height="80px"  viewBox="0 0 80 80">
<path fill-rule="evenodd"  fill="#ffbf1d"
 d="M63.29657,44.804565 C63.29657,44.804565 63.29657,36.59253 63.29657,36.59253 C63.29657,31.248291 61.381836,26.062012 57.904907,21.989624 C54.696045,18.231201 50.33252,15.610962 45.528687,14.536255 C45.546997,14.401367 45.55957,14.258789 45.55957,14.103516 C45.559326,12.391968 44.168762,10.999878 42.459167,10.999878 C41.62903,10.999878 41.007935,11.299683 40.498108,11.680054 C39.974304,11.286133 39.372803,10.999878 38.54138,10.999878 C36.834656,10.999878 35.445923,12.391968 35.445923,14.103516 C35.445923,14.260254 35.455994,14.404175 35.472656,14.5373535 C30.669556,15.612915 26.307007,18.233154 23.098816,21.991577 C19.623108,26.06372 17.708862,31.249146 17.708862,36.59253 C17.708862,36.59253 17.708862,40.527344 17.708862,40.527344 C17.708862,40.527344 17.708862,44.756104 17.708862,44.756104 C17.708862,44.756104 15.0,63.999878 15.0,63.999878 C15.0,63.999878 17.999939,63.999878 17.999939,63.999878 C17.999939,63.999878 17.999939,65.99988 17.999939,65.99988 C17.999939,65.99988 20.0,65.99988 20.0,65.99988 C20.0,65.99988 20.0,63.999878 20.0,63.999878 C20.0,63.999878 25.0,63.999878 25.0,63.999878 C25.0,63.999878 22.54541,44.75537 22.54541,44.75537 C22.54541,44.75537 22.54541,41.91577 22.54541,41.91577 C31.819702,35.55371 36.439148,29.467163 38.685913,25.457642 C39.51892,23.971436 40.097595,22.654419 40.500854,21.551147 C40.904236,22.654419 41.48291,23.971436 42.315918,25.457642 C44.56244,29.466919 49.181396,35.55298 58.45459,41.914673 C58.45459,41.914673 58.45459,44.75647 58.45459,44.75647 C58.45459,44.75647 56.0,63.999878 56.0,63.999878 C56.0,63.999878 62.0,63.999878 62.0,63.999878 C62.0,63.999878 62.0,65.99988 62.0,65.99988 C62.0,65.99988 63.99994,65.99988 63.99994,65.99988 C63.99994,65.99988 63.99994,63.999878 63.99994,63.999878 C63.99994,63.999878 66.0,63.999878 66.0,63.999878 C66.0,63.999878 63.29657,44.804565 63.29657,44.804565 ZM18.999939,42.0 C18.999939,42.0 21.0,42.0 21.0,42.0 C21.0,42.0 21.0,43.999756 21.0,43.999756 C21.0,43.999756 18.999939,43.999756 18.999939,43.999756 C18.999939,43.999756 18.999939,42.0 18.999939,42.0 ZM23.206116,62.030273 C23.206116,62.030273 17.062988,62.030273 17.062988,62.030273 C17.062988,62.030273 19.447998,45.715454 19.447998,45.715454 C19.447998,45.715454 20.806763,45.715454 20.806763,45.715454 C20.806763,45.715454 23.206116,62.030273 23.206116,62.030273 ZM37.008057,24.705688 C34.835815,28.535889 30.355286,34.37683 21.341553,40.527344 C21.341553,40.527344 19.543457,40.527344 19.543457,40.527344 C19.543457,40.527344 19.543457,36.59253 19.543457,36.59253 C19.543457,26.697144 26.516846,18.234863 36.21228,16.23999 C36.964844,17.221558 38.420288,18.521729 39.29602,19.270264 C38.981018,20.483276 38.332275,22.370605 37.008057,24.705688 ZM40.500793,17.827026 C40.500793,17.827026 40.41223,17.821533 40.41223,17.821533 C39.19287,16.770752 37.762756,15.420288 37.489075,14.870361 C37.489075,14.870361 37.480103,14.852417 37.480103,14.852417 C37.364258,14.619873 37.280518,14.451782 37.280518,14.1032715 C37.28064,13.383423 37.83441,12.819336 38.54138,12.819336 C39.013,12.819336 39.287354,13.000732 39.87207,13.545898 C39.87207,13.545898 40.507446,14.138428 40.507446,14.138428 C40.507446,14.138428 41.135986,13.53894 41.135986,13.53894 C41.647217,13.051392 41.975586,12.819336 42.459167,12.819336 C43.168884,12.819336 43.724915,13.383423 43.724915,14.1032715 C43.724915,14.424927 43.630493,14.62207 43.520996,14.85022 C43.520996,14.85022 43.505127,14.883667 43.505127,14.883667 C43.269714,15.375977 41.92169,16.680786 40.59192,17.821167 C40.59192,17.821167 40.500793,17.827026 40.500793,17.827026 ZM43.99353,24.705688 C42.669617,22.371216 42.020996,20.484863 41.70587,19.271729 C42.585144,18.523071 44.04413,17.223755 44.792847,16.23999 C54.488586,18.23462 61.461914,26.696045 61.461914,36.592285 C61.461914,36.592285 61.461914,40.527344 61.461914,40.527344 C61.461914,40.527344 59.659912,40.527344 59.659912,40.527344 C50.646484,34.37683 46.165833,28.535889 43.99353,24.705688 ZM62.0,42.0 C62.0,42.0 62.0,43.999756 62.0,43.999756 C62.0,43.999756 60.0,43.999756 60.0,43.999756 C60.0,43.999756 60.0,42.0 60.0,42.0 C60.0,42.0 62.0,42.0 62.0,42.0 ZM57.808594,62.030273 C57.808594,62.030273 60.193542,45.715454 60.193542,45.715454 C60.193542,45.715454 61.55237,45.715454 61.55237,45.715454 C61.55237,45.715454 63.95172,62.030273 63.95172,62.030273 C63.95172,62.030273 57.808594,62.030273 57.808594,62.030273 ZM44.03656,51.65088 C44.03656,51.65088 43.99994,51.0 43.99994,51.0 C43.99994,51.0 51.0,51.0 51.0,51.0 C51.0,51.0 51.0,48.999878 51.0,48.999878 C51.0,48.999878 28.999939,48.999878 28.999939,48.999878 C28.999939,48.999878 28.999939,51.0 28.999939,51.0 C28.999939,51.0 36.0,51.0 36.0,51.0 C36.0,51.0 36.0,51.0 36.0,51.0 C35.95288,53.417847 37.49463,54.598145 38.99994,54.999878 C38.99994,54.999878 38.99994,64.99988 38.99994,64.99988 C38.99994,64.99988 36.0,64.99988 36.0,64.99988 C36.0,64.99988 35.974854,67.01489 35.974854,67.01489 C35.974854,67.01489 40.0,66.99988 40.0,66.99988 C40.0,66.99988 44.02643,67.01489 44.02643,67.01489 C44.02643,67.01489 43.99994,64.99988 43.99994,64.99988 C43.99994,64.99988 41.0,64.99988 41.0,64.99988 C41.0,64.99988 41.0,54.999878 41.0,54.999878 C42.50525,54.598145 44.03656,53.269165 44.03656,51.65088 ZM40.0,52.999756 C39.062744,52.999756 37.99994,52.929443 37.99994,51.999756 C37.99994,51.999756 37.99994,51.0 37.99994,51.0 C37.99994,51.0 42.0,51.0 42.0,51.0 C42.0,51.0 42.0,51.999756 42.0,51.999756 C42.0,52.9292 40.937195,52.999756 40.0,52.999756 ZM2.0,1.9998779 C2.0,1.9998779 3.999939,1.9998779 3.999939,1.9998779 C3.999939,1.9998779 3.999939,14.0 3.999939,14.0 C3.999939,14.0 2.0,14.0 2.0,14.0 C2.0,14.0 2.0,1.9998779 2.0,1.9998779 ZM13.999939,1.9998779 C13.999939,1.9998779 13.999939,3.999878 13.999939,3.999878 C13.999939,3.999878 2.0,3.999878 2.0,3.999878 C2.0,3.999878 2.0,1.9998779 2.0,1.9998779 C2.0,1.9998779 13.999939,1.9998779 13.999939,1.9998779 ZM78.99994,78.999756 C78.99994,78.999756 77.0,78.999756 77.0,78.999756 C77.0,78.999756 77.0,66.99988 77.0,66.99988 C77.0,66.99988 78.99994,66.99988 78.99994,66.99988 C78.99994,66.99988 78.99994,78.999756 78.99994,78.999756 ZM67.0,78.999756 C67.0,78.999756 67.0,77.0 67.0,77.0 C67.0,77.0 78.99994,77.0 78.99994,77.0 C78.99994,77.0 78.99994,78.999756 78.99994,78.999756 C78.99994,78.999756 67.0,78.999756 67.0,78.999756 ZM78.99994,1.9998779 C78.99994,1.9998779 77.0,1.9998779 77.0,1.9998779 C77.0,1.9998779 77.0,14.0 77.0,14.0 C77.0,14.0 78.99994,14.0 78.99994,14.0 C78.99994,14.0 78.99994,1.9998779 78.99994,1.9998779 ZM67.0,1.9998779 C67.0,1.9998779 67.0,3.999878 67.0,3.999878 C67.0,3.999878 78.99994,3.999878 78.99994,3.999878 C78.99994,3.999878 78.99994,1.9998779 78.99994,1.9998779 C78.99994,1.9998779 67.0,1.9998779 67.0,1.9998779 ZM2.0,78.999756 C2.0,78.999756 3.999939,78.999756 3.999939,78.999756 C3.999939,78.999756 3.999939,66.99988 3.999939,66.99988 C3.999939,66.99988 2.0,66.99988 2.0,66.99988 C2.0,66.99988 2.0,78.999756 2.0,78.999756 ZM13.999939,78.999756 C13.999939,78.999756 13.999939,77.0 13.999939,77.0 C13.999939,77.0 2.0,77.0 2.0,77.0 C2.0,77.0 2.0,78.999756 2.0,78.999756 C2.0,78.999756 13.999939,78.999756 13.999939,78.999756 Z"/>
</svg>