<svg xmlns="http://www.w3.org/2000/svg"
 xmlns:xlink="http://www.w3.org/1999/xlink"
 width="80px" height="80px"  viewBox="0 0 80 80">
<path fill-rule="evenodd"  fill="#fab91e"
 d="M2.0,1.9998779 C2.0,1.9998779 3.999939,1.9998779 3.999939,1.9998779 C3.999939,1.9998779 3.999939,14.0 3.999939,14.0 C3.999939,14.0 2.0,14.0 2.0,14.0 C2.0,14.0 2.0,1.9998779 2.0,1.9998779 ZM13.999939,1.9998779 C13.999939,1.9998779 13.999939,3.999878 13.999939,3.999878 C13.999939,3.999878 2.0,3.999878 2.0,3.999878 C2.0,3.999878 2.0,1.9998779 2.0,1.9998779 C2.0,1.9998779 13.999939,1.9998779 13.999939,1.9998779 ZM79.0,78.999756 C79.0,78.999756 77.0,78.999756 77.0,78.999756 C77.0,78.999756 77.0,66.99988 77.0,66.99988 C77.0,66.99988 79.0,66.99988 79.0,66.99988 C79.0,66.99988 79.0,78.999756 79.0,78.999756 ZM67.0,78.999756 C67.0,78.999756 67.0,77.0 67.0,77.0 C67.0,77.0 79.0,77.0 79.0,77.0 C79.0,77.0 79.0,78.999756 79.0,78.999756 C79.0,78.999756 67.0,78.999756 67.0,78.999756 ZM79.0,1.9998779 C79.0,1.9998779 77.0,1.9998779 77.0,1.9998779 C77.0,1.9998779 77.0,14.0 77.0,14.0 C77.0,14.0 79.0,14.0 79.0,14.0 C79.0,14.0 79.0,1.9998779 79.0,1.9998779 ZM67.0,1.9998779 C67.0,1.9998779 67.0,3.999878 67.0,3.999878 C67.0,3.999878 79.0,3.999878 79.0,3.999878 C79.0,3.999878 79.0,1.9998779 79.0,1.9998779 C79.0,1.9998779 67.0,1.9998779 67.0,1.9998779 ZM2.0,78.999756 C2.0,78.999756 3.999939,78.999756 3.999939,78.999756 C3.999939,78.999756 3.999939,66.99988 3.999939,66.99988 C3.999939,66.99988 2.0,66.99988 2.0,66.99988 C2.0,66.99988 2.0,78.999756 2.0,78.999756 ZM13.999939,78.999756 C13.999939,78.999756 13.999939,77.0 13.999939,77.0 C13.999939,77.0 2.0,77.0 2.0,77.0 C2.0,77.0 2.0,78.999756 2.0,78.999756 C2.0,78.999756 13.999939,78.999756 13.999939,78.999756 ZM44.296997,38.473877 C44.296997,38.473877 41.475586,38.473877 41.475586,38.473877 C40.52771,38.473877 39.756836,37.70337 39.756836,36.756226 C39.756836,36.756226 39.756836,36.06848 39.756836,36.06848 C39.756836,34.880737 38.79004,33.91443 37.601685,33.91443 C37.601685,33.91443 27.001038,33.91443 27.001038,33.91443 C25.812744,33.91443 24.845825,34.880737 24.845825,36.06848 C24.845825,36.06848 24.845825,36.756226 24.845825,36.756226 C24.845825,37.70337 24.074707,38.473877 23.127075,38.473877 C23.127075,38.473877 20.305664,38.473877 20.305664,38.473877 C18.128845,38.473877 16.357788,40.24414 16.357788,42.419678 C16.357788,42.419678 16.357788,45.791626 16.357788,45.791626 C16.357788,46.25818 16.736206,46.636597 17.203125,46.636597 C17.669922,46.636597 18.048462,46.258423 18.048462,45.791626 C18.048462,45.791626 18.048462,42.419678 18.048462,42.419678 C18.048462,41.175537 19.061157,40.163574 20.305786,40.163574 C20.305786,40.163574 23.127136,40.163574 23.127136,40.163574 C25.00708,40.163574 26.53656,38.63501 26.53656,36.75586 C26.53656,36.75586 26.53656,36.06848 26.53656,36.06848 C26.53656,35.812622 26.745178,35.604126 27.001282,35.604126 C27.001282,35.604126 37.601807,35.604126 37.601807,35.604126 C37.85791,35.604126 38.06653,35.812622 38.06653,36.06848 C38.06653,36.06848 38.06653,36.75586 38.06653,36.75586 C38.06653,38.63501 39.59607,40.163574 41.475952,40.163574 C41.475952,40.163574 44.297363,40.163574 44.297363,40.163574 C45.541992,40.163574 46.554565,41.175537 46.554565,42.419678 C46.554565,42.419678 46.554565,57.90442 46.554565,57.90442 C46.554565,59.148315 45.541992,60.16028 44.29724,60.16028 C44.29724,60.16028 20.305664,60.16028 20.305664,60.16028 C19.061035,60.16028 18.04834,59.148315 18.04834,57.90442 C18.04834,57.90442 18.04834,50.923584 18.04834,50.923584 C18.04834,50.45703 17.669922,50.078857 17.203064,50.078857 C16.736206,50.078857 16.357727,50.456787 16.357727,50.923584 C16.357727,50.923584 16.357727,57.90442 16.357727,57.90442 C16.357727,60.079956 18.128784,61.849976 20.305542,61.849976 C20.305542,61.849976 44.296875,61.849976 44.296875,61.849976 C46.473877,61.849976 48.24475,60.079956 48.24475,57.90442 C48.24475,57.90442 48.24475,42.419678 48.24475,42.419678 C48.244995,40.24414 46.473877,38.473877 44.296997,38.473877 ZM32.30139,42.170532 C28.116943,42.170532 24.712708,45.573242 24.712708,49.755493 C24.712708,53.937744 28.117004,57.339844 32.30139,57.339844 C36.485718,57.339844 39.890137,53.9375 39.890137,49.755493 C39.890137,45.573242 36.485718,42.170532 32.30139,42.170532 ZM32.30127,55.650146 C29.049072,55.650146 26.403137,53.005615 26.403137,49.75525 C26.403137,46.504883 29.049072,43.86023 32.30127,43.86023 C35.553467,43.86023 38.199463,46.504883 38.199463,49.75525 C38.199463,53.00586 35.553467,55.650146 32.30127,55.650146 ZM43.447998,42.412476 C42.95056,42.412476 42.545776,42.817017 42.545776,43.31421 C42.545776,43.811523 42.95056,44.215942 43.447998,44.215942 C43.945435,44.215942 44.35022,43.811523 44.35022,43.31421 C44.35022,42.817017 43.945435,42.412476 43.447998,42.412476 ZM54.19629,17.14978 C54.19629,17.14978 28.501099,17.14978 28.501099,17.14978 C28.03424,17.14978 27.655762,17.527954 27.655762,17.994507 C27.655762,17.994507 27.655762,30.741943 27.655762,30.741943 C27.655762,31.208374 28.03418,31.586548 28.501099,31.586548 C28.967834,31.586548 29.346313,31.208618 29.346313,30.741943 C29.346313,30.741943 29.346313,18.839478 29.346313,18.839478 C29.346313,18.839478 53.351074,18.839478 53.351074,18.839478 C53.351074,18.839478 53.351074,26.01062 53.351074,26.01062 C53.351074,26.477295 53.729492,26.85559 54.19641,26.85559 C54.663208,26.85559 55.041748,26.477295 55.041748,26.01062 C55.041748,26.01062 55.041748,17.994507 55.041748,17.994507 C55.041626,17.527954 54.663086,17.14978 54.19629,17.14978 ZM50.541504,20.735474 C50.541504,20.735474 32.07306,20.735474 32.07306,20.735474 C31.606201,20.735474 31.227722,21.113403 31.227722,21.5802 C31.227722,21.5802 31.227722,30.966919 31.227722,30.966919 C31.227722,31.433716 31.60614,31.812012 32.07306,31.812012 C32.539856,31.812012 32.918335,31.433716 32.918335,30.966919 C32.918335,30.966919 32.918335,22.424927 32.918335,22.424927 C32.918335,22.424927 49.696167,22.424927 49.696167,22.424927 C49.696167,22.424927 49.696167,24.95935 49.696167,24.95935 C49.696167,25.426147 50.074707,25.804321 50.541504,25.804321 C51.0083,25.804321 51.38684,25.426147 51.38684,24.95935 C51.38684,24.95935 51.38684,21.5802 51.38684,21.5802 C51.38684,21.113403 51.0083,20.735474 50.541504,20.735474 ZM67.00598,33.950195 C67.00598,33.950195 43.04309,24.680176 43.04309,24.680176 C42.607788,24.511597 42.118042,24.727905 41.949707,25.163086 C41.949707,25.163086 39.592285,31.249878 39.592285,31.249878 C39.423706,31.68518 39.640015,32.174316 40.07544,32.34265 C40.51123,32.511353 41.00049,32.2948 41.168945,31.859863 C41.168945,31.859863 43.22119,26.560669 43.22119,26.560669 C43.22119,26.560669 65.60742,35.220947 65.60742,35.220947 C65.60742,35.220947 56.942627,57.595215 56.942627,57.595215 C56.942627,57.595215 50.80249,55.219727 50.80249,55.219727 C50.367554,55.05139 49.877563,55.26758 49.709106,55.70276 C49.540527,56.137695 49.756836,56.626953 50.19226,56.795532 C50.19226,56.795532 57.120728,59.475586 57.120728,59.475586 C57.220947,59.51465 57.32422,59.53296 57.42566,59.53296 C57.76465,59.53296 58.084473,59.32776 58.214233,58.992798 C58.214233,58.992798 67.48938,35.04297 67.48938,35.04297 C67.65784,34.607788 67.44141,34.11853 67.00598,33.950195 ZM62.770752,36.421753 C62.680054,36.216553 62.511597,36.05603 62.302612,35.975464 C62.302612,35.975464 45.079224,29.312378 45.079224,29.312378 C44.866943,29.230469 44.630615,29.237183 44.42383,29.331543 C44.216675,29.425903 44.05652,29.599487 43.979248,29.813232 C43.979248,29.813232 41.80713,35.823975 41.80713,35.823975 C41.64856,36.262817 41.8761,36.74707 42.315063,36.90564 C42.754272,37.06433 43.238647,36.836792 43.397217,36.39795 C43.397217,36.39795 45.275635,31.200073 45.275635,31.200073 C45.275635,31.200073 60.904175,37.245728 60.904175,37.245728 C60.904175,37.245728 56.20642,49.376465 56.20642,49.376465 C56.20642,49.376465 50.558594,47.191406 50.558594,47.191406 C50.12329,47.02307 49.633667,47.23938 49.465332,47.67456 C49.29663,48.109497 49.51306,48.598755 49.948486,48.767334 C49.948486,48.767334 56.3844,51.257202 56.3844,51.257202 C56.79602,51.416626 57.310547,51.206543 57.477783,50.774048 C57.477783,50.774048 62.785767,37.067993 62.785767,37.067993 C62.8667,36.85913 62.86133,36.626587 62.770752,36.421753 Z"/>
</svg>