<svg xmlns="http://www.w3.org/2000/svg"
 xmlns:xlink="http://www.w3.org/1999/xlink"
 width="22px" height="16px"  viewBox="0 0 22 16">
<path fill-rule="evenodd"  fill="#d39500"
 d="M13.331909,13.685547 C12.940063,13.29187 12.940063,12.653687 13.331909,12.259949 C13.331909,12.259949 18.299316,7.2714233 18.299316,7.2714233 C18.691162,6.8777466 19.32666,6.8777466 19.718628,7.2714233 C20.110474,7.665161 20.110474,8.303345 19.718628,8.696716 C19.718628,8.696716 14.751221,13.685547 14.751221,13.685547 C14.359375,14.079224 13.723755,14.079224 13.331909,13.685547 ZM18.299316,8.696716 C18.299316,8.696716 13.331909,3.7079468 13.331909,3.7079468 C12.940063,3.3145142 12.940063,2.6766357 13.331909,2.282898 C13.723755,1.8892212 14.359375,1.8892212 14.751221,2.282898 C14.751221,2.282898 19.718628,7.2714233 19.718628,7.2714233 C20.110474,7.665161 20.110474,8.303345 19.718628,8.696716 C19.32666,9.090454 18.691162,9.090454 18.299316,8.696716 ZM19.000366,8.968323 C19.000366,8.968323 2.0046387,8.968323 2.0046387,8.968323 C1.4523926,8.968323 1.0048828,8.52063 1.0048828,7.968567 C1.0048828,7.4159546 1.4523926,6.9682617 2.0046387,6.9682617 C2.0046387,6.9682617 19.000366,6.9682617 19.000366,6.9682617 C19.55249,6.9682617 20.000122,7.4159546 20.000122,7.968567 C20.000122,8.52063 19.55249,8.968323 19.000366,8.968323 Z"/>
</svg>