<svg xmlns="http://www.w3.org/2000/svg"
 xmlns:xlink="http://www.w3.org/1999/xlink"
 width="22px" height="16px"  viewBox="0 0 22 16"   fill="currentColor">
<path fill-rule="evenodd"
 d="M8.68959,13.685242 C9.080978,13.291565 9.080978,12.653687 8.68959,12.259949 C8.68959,12.259949 3.7292633,7.2714233 3.7292633,7.2714233 C3.3379517,6.8777466 2.703415,6.8777466 2.3121033,7.2714233 C1.9207153,7.664856 1.9207153,8.30304 2.3121033,8.696716 C2.3121033,8.696716 7.2724304,13.685242 7.2724304,13.685242 C7.663742,14.0789795 8.298279,14.0789795 8.68959,13.685242 ZM3.7292633,8.696716 C3.7292633,8.696716 8.68959,3.708191 8.68959,3.708191 C9.080978,3.3145142 9.080978,2.6763306 8.68959,2.2826538 C8.298279,1.888916 7.663742,1.888916 7.2724304,2.2826538 C7.2724304,2.2826538 2.3121033,7.2714233 2.3121033,7.2714233 C1.9207153,7.664856 1.9207153,8.30304 2.3121033,8.696716 C2.703415,9.090454 3.3379517,9.090454 3.7292633,8.696716 ZM3.0293427,8.968079 C3.0293427,8.968079 19.996582,8.968079 19.996582,8.968079 C20.547958,8.968079 20.99504,8.520386 20.99504,7.9683228 C20.99504,7.41626 20.547958,6.968567 19.996582,6.968567 C19.996582,6.968567 3.0293427,6.968567 3.0293427,6.968567 C2.4779663,6.968567 2.0308075,7.41626 2.0308075,7.9683228 C2.0308075,8.520386 2.4779663,8.968079 3.0293427,8.968079 Z"/>
</svg>