<svg xmlns="http://www.w3.org/2000/svg"
 xmlns:xlink="http://www.w3.org/1999/xlink"
 width="76px" height="77px"  viewBox="0 0 76 77">
<path fill-rule="evenodd"  fill="#ffde8f"
 d="M18.790771,32.697754 C19.399963,32.39502 19.650452,31.655273 19.348267,31.044922 C19.04596,30.434082 18.307251,30.182617 17.695496,30.487305 C16.43747,31.109863 15.799805,31.899414 15.799805,32.834473 C15.799805,37.529297 34.29248,37.76758 37.999817,37.76758 C41.707153,37.76758 60.19983,37.529297 60.19983,32.834473 C60.19983,31.875977 59.52893,31.0708 58.203125,30.438965 C57.588867,30.144531 56.8526,30.405762 56.559082,31.02002 C56.266785,31.635742 56.525818,32.371582 57.141296,32.664062 C57.28058,32.730957 57.3916,32.791016 57.479187,32.84424 C55.89569,33.80371 49.3208,35.30078 38.0,35.30078 C26.677979,35.30078 20.103088,33.80371 18.51947,32.84424 C18.593445,32.799805 18.68219,32.75049 18.790771,32.697754 ZM45.399963,15.568359 C45.399963,15.568359 45.399963,32.217773 45.399963,32.217773 C45.399963,32.898438 45.952454,33.450684 46.63324,33.450684 C47.314026,33.450684 47.866516,32.898438 47.866516,32.217773 C47.866516,32.217773 47.866516,15.568359 47.866516,15.568359 C47.866516,14.887695 47.314026,14.334961 46.63324,14.334961 C45.952454,14.334961 45.399963,14.887207 45.399963,15.568359 ZM40.465393,34.06787 C40.50244,34.06787 40.54071,34.066406 40.577576,34.06299 C41.25708,34.000977 41.75659,33.40039 41.694885,32.723145 C40.54541,20.081055 44.703003,6.6245117 46.631958,4.612793 C48.4942,6.597168 52.718445,20.018066 51.572754,31.478027 C51.505005,32.15625 51.99951,32.760742 52.676575,32.828125 C53.37085,32.90332 53.95923,32.401367 54.02704,31.72461 C55.1308,20.692871 51.361694,6.192871 48.411743,2.932129 C47.301758,1.7050781 45.984436,1.6987305 44.87329,2.9135742 C41.868896,6.2026367 38.14911,20.966797 39.23816,32.9458 C39.296265,33.586426 39.833923,34.06787 40.465393,34.06787 ZM30.599976,32.217773 C30.599976,32.217773 30.599976,15.568359 30.599976,15.568359 C30.599976,14.887695 30.047363,14.334961 29.3667,14.334961 C28.685913,14.334961 28.133423,14.887695 28.133423,15.568359 C28.133423,15.568359 28.133423,32.217773 28.133423,32.217773 C28.133423,32.898438 28.685913,33.450684 29.3667,33.450684 C30.047363,33.450684 30.599976,32.898438 30.599976,32.217773 ZM62.666626,5.70166 C62.666626,6.382324 63.21924,6.9350586 63.899902,6.9350586 C64.58069,6.9350586 65.13324,6.382324 65.13324,5.70166 C65.813965,5.70166 66.366516,5.148926 66.366516,4.46875 C66.366516,3.7875977 65.813965,3.2353516 65.13324,3.2353516 C65.13324,2.5546875 64.58069,2.0019531 63.899902,2.0019531 C63.21924,2.0019531 62.666626,2.5546875 62.666626,3.2353516 C61.985962,3.2353516 61.43335,3.7875977 61.43335,4.46875 C61.43335,5.148926 61.98578,5.70166 62.666626,5.70166 ZM57.983704,22.368652 C57.311523,22.229004 56.66284,22.660645 56.526,23.328125 C56.3891,23.995117 56.818237,24.646484 57.485535,24.784668 C66.62695,26.664062 72.533325,29.82373 72.533325,32.834473 C72.533325,37.500977 58.351196,42.700684 38.000122,42.700684 C17.648926,42.700684 3.4666748,37.500977 3.4666748,32.834473 C3.4666748,29.82373 9.373108,26.664062 18.514587,24.784668 C19.180542,24.646484 19.610962,23.995117 19.474121,23.328125 C19.33728,22.660645 18.685913,22.22998 18.016357,22.368652 C7.2023926,24.592285 1.0,28.406738 1.0,32.834473 C1.0,40.844727 20.06366,45.166992 38.0,45.166992 C55.93628,45.166992 74.99994,40.844727 74.99994,32.834473 C74.99994,28.408203 68.79755,24.592285 57.983704,22.368652 ZM58.966675,45.16748 C58.28589,45.16748 57.7334,45.719727 57.7334,46.40088 C57.7334,46.40088 57.7334,69.21777 57.7334,69.21777 C56.223755,70.251465 50.44818,73.5332 38.000122,73.5332 C25.679077,73.5332 19.805908,70.242676 18.266846,69.21045 C18.266846,69.21045 18.266846,52.29834 18.266846,52.29834 C21.20337,53.83838 27.490967,56.26709 38.000122,56.26709 C45.82428,56.26709 51.26703,54.885742 54.45526,53.726074 C55.095398,53.493164 55.424683,52.785645 55.19281,52.145508 C54.958496,51.50537 54.249268,51.17578 53.611633,51.407715 C50.610718,52.49951 45.46527,53.800293 38.0,53.800293 C26.04895,53.800293 19.900757,50.487793 18.266724,49.44922 C18.266724,49.44922 18.266724,46.40088 18.266724,46.40088 C18.266724,45.719727 17.714111,45.16748 17.033386,45.16748 C16.35263,45.16748 15.80011,45.719727 15.80011,46.40088 C15.80011,46.40088 15.80011,69.833496 15.80011,69.833496 C15.80011,70.18945 15.954285,70.52783 16.221863,70.76221 C16.467285,70.97656 22.401978,76.0 38.0,76.0 C53.780457,76.0 59.553772,70.964355 59.791626,70.74951 C60.052002,70.515625 60.19995,70.18262 60.19995,69.833496 C60.19995,69.833496 60.19995,46.40088 60.19995,46.40088 C60.19995,45.719727 59.6474,45.16748 58.966675,45.16748 ZM23.323242,32.828125 C24.000366,32.760254 24.494934,32.15625 24.427063,31.47754 C23.281372,20.017578 27.505432,6.597168 29.367859,4.612793 C31.296692,6.6240234 35.454346,20.081055 34.30493,32.723145 C34.243164,33.40039 34.742676,34.000977 35.42224,34.0625 C35.45923,34.066406 35.49756,34.067383 35.534546,34.067383 C36.166016,34.067383 36.703796,33.586426 36.76178,32.945312 C37.85083,20.966309 34.131042,6.2021484 31.126648,2.913086 C30.01538,1.6972656 28.698242,1.703125 27.588196,2.9316406 C24.638062,6.192383 20.868896,20.692383 21.9729,31.72461 C22.04065,32.401367 22.648682,32.904785 23.323242,32.828125 ZM13.333221,14.334961 C13.333221,15.015625 13.885803,15.567871 14.566528,15.567871 C15.247284,15.567871 15.799805,15.015625 15.799805,14.334961 C16.48059,14.334961 17.033081,13.782227 17.033081,13.1015625 C17.033081,12.420898 16.48059,11.868164 15.799805,11.868164 C15.799805,11.1875 15.247284,10.635254 14.566528,10.635254 C13.885803,10.635254 13.333221,11.1875 13.333221,11.868164 C12.652527,11.868164 12.099915,12.420898 12.099915,13.1015625 C12.099915,13.782227 12.652527,14.334961 13.333221,14.334961 ZM2.2332153,6.9350586 C2.2332153,6.9350586 3.4664917,6.9350586 3.4664917,6.9350586 C3.4664917,6.9350586 3.4664917,8.168457 3.4664917,8.168457 C3.4664917,8.848633 4.019104,9.401367 4.6997986,9.401367 C5.380554,9.401367 5.9331055,8.848633 5.9331055,8.168457 C5.9331055,8.168457 5.9331055,6.9350586 5.9331055,6.9350586 C5.9331055,6.9350586 7.166382,6.9350586 7.166382,6.9350586 C7.847168,6.9350586 8.399658,6.382324 8.399658,5.70166 C8.399658,5.020996 7.847168,4.46875 7.166382,4.46875 C7.166382,4.46875 5.9331055,4.46875 5.9331055,4.46875 C5.9331055,4.46875 5.9331055,3.2353516 5.9331055,3.2353516 C5.9332275,2.5541992 5.3807373,2.0014648 4.699951,2.0014648 C4.019165,2.0014648 3.4666748,2.5541992 3.4666748,3.2353516 C3.4666748,3.2353516 3.4666748,4.4682617 3.4666748,4.4682617 C3.4666748,4.4682617 2.2332153,4.4682617 2.2332153,4.4682617 C1.5525208,4.46875 1.0,5.020996 1.0,5.70166 C1.0,6.382324 1.5525208,6.9350586 2.2332153,6.9350586 Z"/>
</svg>