<svg xmlns="http://www.w3.org/2000/svg"
 xmlns:xlink="http://www.w3.org/1999/xlink"
 width="79px" height="78px"  viewBox="0 0 79 78">
<path fill-rule="evenodd"  fill="#ffde8f"
 d="M38.25,19.5 C38.93994,19.5 39.499878,18.939941 39.499878,18.25 C39.499878,18.25 39.499878,4.5 39.499878,4.5 C39.499878,4.5 47.732056,4.5 47.732056,4.5 C47.732056,4.5 46.115845,6.116211 46.115845,6.116211 C45.626953,6.6049805 45.626953,7.3950195 46.115845,7.883789 C46.115845,7.883789 47.732056,9.5 47.732056,9.5 C47.732056,9.5 43.249634,9.5 43.249634,9.5 C42.559814,9.5 41.999756,10.05957 41.999756,10.749512 C41.999756,11.439453 42.559814,12.0 43.249634,12.0 C43.249634,12.0 50.749268,12.0 50.749268,12.0 C51.25415,12.0 51.71045,11.694824 51.904175,11.228516 C52.098022,10.76123 51.99048,10.223633 51.632935,9.866211 C51.632935,9.866211 48.766846,7.0 48.766846,7.0 C48.766846,7.0 51.632935,4.133301 51.632935,4.133301 C51.99048,3.775879 52.0979,3.2382812 51.904175,2.770996 C51.71045,2.3046875 51.254272,1.9995117 50.749268,1.9995117 C50.749268,1.9995117 38.25,1.9995117 38.25,1.9995117 C37.56006,1.9995117 37.000244,2.5600586 37.000244,3.25 C37.000244,3.25 37.000244,18.249512 37.000244,18.249512 C37.000244,18.939941 37.56006,19.5 38.25,19.5 ZM76.98511,75.572266 C76.96643,75.43994 75.02405,62.13867 69.55823,49.018555 C65.02466,38.137207 59.340088,30.427246 52.771606,26.097168 C52.68286,26.016113 52.590454,25.947266 52.48291,25.894531 C48.463257,23.315918 44.115967,22.0 39.499878,22.0 C34.88513,22.0 30.537964,23.315918 26.51941,25.89209 C26.409424,25.947266 26.314453,26.016113 26.224487,26.100098 C19.658447,30.431152 13.973877,38.13965 9.44165,49.018555 C3.97583,62.13867 2.0335693,75.43994 2.0148926,75.572266 C1.963623,75.93115 2.071045,76.29492 2.3084717,76.56836 C2.5458984,76.842285 2.8896484,77.0 3.2521973,77.0 C3.2521973,77.0 15.751465,77.0 15.751465,77.0 C16.441406,77.0 17.00122,76.43994 17.00122,75.75 C17.00122,75.06006 16.441406,74.5 15.751465,74.5 C15.751465,74.5 4.72583,74.5 4.72583,74.5 C4.921997,73.38135 5.253174,71.64502 5.729492,69.5 C5.729492,69.5 19.803589,69.5 19.803589,69.5 C19.670898,71.00879 19.58606,72.52881 19.549805,74.05713 C19.521118,74.62988 19.500977,75.197266 19.500977,75.75 C19.500977,76.43994 20.061035,77.0 20.750854,77.0 C21.440796,77.0 22.000854,76.43994 22.000854,75.75 C22.000854,64.30371 28.980347,47.0 39.499756,47.0 C50.019287,47.0 56.99878,64.30371 56.99878,75.75 C56.99878,76.43994 57.558716,77.0 58.248535,77.0 C58.938477,77.0 59.498535,76.43994 59.498535,75.75 C59.498535,75.197266 59.478516,74.62988 59.449707,74.05713 C59.413574,72.52881 59.32849,71.0083 59.196045,69.5 C59.196045,69.5 73.27014,69.5 73.27014,69.5 C73.74634,71.64502 74.07764,73.38135 74.2738,74.5 C74.2738,74.5 63.24817,74.5 63.24817,74.5 C62.558228,74.5 61.99829,75.06006 61.99829,75.75 C61.99829,76.43994 62.558228,77.0 63.24817,77.0 C63.24817,77.0 75.747314,77.0 75.747314,77.0 C76.10986,77.0 76.45349,76.842285 76.69104,76.56836 C76.92859,76.29492 77.03638,75.93115 76.98511,75.572266 ZM39.499878,24.5 C42.832275,24.5 45.86206,25.276367 48.629272,26.606445 C45.36206,27.629883 42.30847,29.092285 39.499878,30.972168 C36.691406,29.092285 33.637817,27.629883 30.370605,26.606445 C33.13794,25.276367 36.167603,24.5 39.499878,24.5 ZM20.048706,67.0 C20.048706,67.0 6.310791,67.0 6.310791,67.0 C9.071899,55.631348 15.316528,36.493652 27.310791,28.35254 C31.059326,29.245117 34.394043,30.672363 37.346436,32.520996 C33.18921,35.773926 29.639404,40.01123 26.814575,45.14746 C23.344727,51.453613 21.03479,59.006348 20.048706,67.0 ZM39.499878,44.5 C33.689087,44.5 28.880615,48.697266 25.435791,54.467773 C28.183105,46.424805 32.71167,39.02246 39.499878,33.97998 C46.28833,39.02246 50.816772,46.424805 53.564087,54.467773 C50.119263,48.697266 45.310913,44.5 39.499878,44.5 ZM58.951294,67.0 C57.965088,59.006348 55.655273,51.453613 52.185425,45.14746 C49.360596,40.01123 45.81079,35.773438 41.653564,32.520996 C44.605957,30.672363 47.940796,29.245117 51.68921,28.35254 C63.68347,36.493652 69.92798,55.631348 72.68921,67.0 C72.68921,67.0 58.951294,67.0 58.951294,67.0 Z"/>
</svg>