<svg xmlns="http://www.w3.org/2000/svg"
 xmlns:xlink="http://www.w3.org/1999/xlink"
 width="32px" height="32px"  viewBox="0 0 32 32">
<path fill-rule="evenodd"  fill="#C4BEC4"
 d="M16.496277,1.9975586 C24.50647,1.9975586 30.999634,8.489746 30.999634,16.498535 C30.999634,24.507324 24.50647,31.0 16.496277,31.0 C8.486694,31.0 1.9936523,24.507324 1.9936523,16.498535 C1.9936523,8.489746 8.486694,1.9975586 16.496277,1.9975586 ZM16.499939,5.2734375 C22.701538,5.2734375 27.729248,10.300781 27.729248,16.501953 C27.729248,22.703125 22.701538,27.729492 16.499939,27.729492 C10.29834,27.729492 5.270752,22.703125 5.270752,16.501953 C5.270752,10.300781 10.29834,5.2734375 16.499939,5.2734375 ZM14.861328,8.537598 C14.861328,8.537598 8.7491455,18.884277 8.7491455,18.884277 C8.7491455,18.884277 9.124451,20.59961 9.553101,21.189453 C9.982178,21.779297 10.304016,21.939941 10.304016,21.939941 C10.304016,21.939941 22.582092,21.939941 22.582092,21.939941 C22.582092,21.939941 23.815063,20.813965 24.083008,19.902344 C24.35144,18.9917 24.29779,18.9917 24.29779,18.9917 C24.29779,18.9917 18.239258,8.537598 18.239258,8.537598 C18.239258,8.537598 17.495056,8.055176 16.446472,8.001953 C15.397583,7.948242 14.861328,8.537598 14.861328,8.537598 ZM16.630554,12.665527 C16.630554,12.665527 20.298767,18.75 20.298767,18.75 C20.298767,18.75 12.962524,18.75 12.962524,18.75 C12.962524,18.75 16.630554,12.665527 16.630554,12.665527 Z"/>
</svg>