<svg xmlns="http://www.w3.org/2000/svg"
 xmlns:xlink="http://www.w3.org/1999/xlink"
 width="15px" height="15px"  viewBox="0 0 15 15">
<path fill-rule="evenodd"  fill="#f9b81e"
 d="M12.751633,10.703758 C12.751633,10.703758 11.053329,9.000214 11.053329,9.000214 C10.715195,8.662445 10.154892,8.672684 9.804932,9.02375 C9.804932,9.02375 8.949371,9.881752 8.949371,9.881752 C8.895203,9.851852 8.839508,9.82029 8.780457,9.787621 C8.240372,9.487221 7.500778,9.07608 6.72258,8.294769 C5.942169,7.512352 5.5313263,6.769806 5.231186,6.2274246 C5.1993713,6.169838 5.1690063,6.1150208 5.1391754,6.0621414 C5.1391754,6.0621414 5.71344,5.4870987 5.71344,5.4870987 C5.71344,5.4870987 5.9954987,5.2035904 5.9954987,5.2035904 C6.346298,4.851967 6.3559113,4.290489 6.0183105,3.9518852 C6.0183105,3.9518852 4.3200836,2.2483444 4.3200836,2.2483444 C3.9827118,1.9100189 3.4221802,1.9202614 3.0716858,2.2718773 C3.0716858,2.2718773 2.5929413,2.7544518 2.5929413,2.7544518 C2.5929413,2.7544518 2.6061401,2.7677422 2.6061401,2.7677422 C2.445694,2.973175 2.3114166,3.2096138 2.2117767,3.4651604 C2.1197662,3.7082481 2.0623932,3.940258 2.0362244,4.172821 C1.8119965,6.036949 2.6615295,7.7407684 4.9669037,10.052849 C8.153854,13.248138 10.722137,13.006706 10.832916,12.995079 C11.074158,12.966011 11.305481,12.908424 11.540543,12.81678 C11.793228,12.717667 12.029205,12.583382 12.233673,12.42308 C12.233673,12.42308 12.244202,12.432495 12.244202,12.432495 C12.244202,12.432495 12.728973,11.956291 12.728973,11.956291 C13.079086,11.604393 13.088928,11.042915 12.751633,10.703758 Z"/>
</svg>