<svg xmlns="http://www.w3.org/2000/svg"
 xmlns:xlink="http://www.w3.org/1999/xlink"
 width="80px" height="80px"  viewBox="0 0 80 80">
<path fill-rule="evenodd"  fill="#ffbf1d"
 d="M2.0,1.9998779 C2.0,1.9998779 3.999939,1.9998779 3.999939,1.9998779 C3.999939,1.9998779 3.999939,13.999756 3.999939,13.999756 C3.999939,13.999756 2.0,13.999756 2.0,13.999756 C2.0,13.999756 2.0,1.9998779 2.0,1.9998779 ZM13.999939,1.9998779 C13.999939,1.9998779 13.999939,4.0 13.999939,4.0 C13.999939,4.0 2.0,4.0 2.0,4.0 C2.0,4.0 2.0,1.9998779 2.0,1.9998779 C2.0,1.9998779 13.999939,1.9998779 13.999939,1.9998779 ZM78.99994,78.99988 C78.99994,78.99988 77.0,78.99988 77.0,78.99988 C77.0,78.99988 77.0,66.999756 77.0,66.999756 C77.0,66.999756 78.99994,66.999756 78.99994,66.999756 C78.99994,66.999756 78.99994,78.99988 78.99994,78.99988 ZM67.0,78.99988 C67.0,78.99988 67.0,76.999756 67.0,76.999756 C67.0,76.999756 78.99994,76.999756 78.99994,76.999756 C78.99994,76.999756 78.99994,78.99988 78.99994,78.99988 C78.99994,78.99988 67.0,78.99988 67.0,78.99988 ZM78.99994,1.9998779 C78.99994,1.9998779 77.0,1.9998779 77.0,1.9998779 C77.0,1.9998779 77.0,13.999756 77.0,13.999756 C77.0,13.999756 78.99994,13.999756 78.99994,13.999756 C78.99994,13.999756 78.99994,1.9998779 78.99994,1.9998779 ZM67.0,1.9998779 C67.0,1.9998779 67.0,4.0 67.0,4.0 C67.0,4.0 78.99994,4.0 78.99994,4.0 C78.99994,4.0 78.99994,1.9998779 78.99994,1.9998779 C78.99994,1.9998779 67.0,1.9998779 67.0,1.9998779 ZM2.0,78.99988 C2.0,78.99988 3.999939,78.99988 3.999939,78.99988 C3.999939,78.99988 3.999939,66.999756 3.999939,66.999756 C3.999939,66.999756 2.0,66.999756 2.0,66.999756 C2.0,66.999756 2.0,78.99988 2.0,78.99988 ZM13.999939,78.99988 C13.999939,78.99988 13.999939,76.999756 13.999939,76.999756 C13.999939,76.999756 2.0,76.999756 2.0,76.999756 C2.0,76.999756 2.0,78.99988 2.0,78.99988 C2.0,78.99988 13.999939,78.99988 13.999939,78.99988 ZM49.094788,39.733154 C48.5972,39.733154 48.19507,40.12903 48.19507,40.616577 C48.19507,40.616577 48.19507,49.45105 48.19507,49.45105 C48.19507,49.9386 48.5972,50.334473 49.094788,50.334473 C49.592285,50.334473 49.994446,49.9386 49.994446,49.45105 C49.994446,49.45105 49.994446,40.616577 49.994446,40.616577 C49.994446,40.12903 49.592224,39.733154 49.094788,39.733154 ZM41.89685,17.64746 C42.39441,17.64746 42.79657,17.251465 42.79657,16.763916 C42.79657,16.763916 42.79657,15.880493 42.79657,15.880493 C42.79657,15.392944 42.39441,14.996948 41.89685,14.996948 C41.399323,14.996948 40.997192,15.392944 40.997192,15.880493 C40.997192,15.880493 40.997192,16.763916 40.997192,16.763916 C40.997192,17.251465 41.399323,17.64746 41.89685,17.64746 ZM26.60144,37.083008 C26.60144,37.083008 26.60144,52.984863 26.60144,52.984863 C26.60144,53.472412 27.00357,53.868042 27.501099,53.868042 C27.501099,53.868042 54.493042,53.868042 54.493042,53.868042 C54.99063,53.868042 55.39276,53.472412 55.39276,52.984863 C55.39276,52.984863 55.39276,37.083008 55.39276,37.083008 C55.39276,36.59546 54.99063,36.199463 54.493042,36.199463 C54.493042,36.199463 27.501099,36.199463 27.501099,36.199463 C27.003662,36.199463 26.60144,36.59546 26.60144,37.083008 ZM28.400879,37.96643 C28.400879,37.96643 53.593323,37.96643 53.593323,37.96643 C53.593323,37.96643 53.593323,52.10144 53.593323,52.10144 C53.593323,52.10144 28.400879,52.10144 28.400879,52.10144 C28.400879,52.10144 28.400879,37.96643 28.400879,37.96643 ZM66.453186,20.92212 C66.68359,20.92212 66.91385,20.835815 67.089325,20.663574 C67.089325,20.663574 67.7254,20.03894 67.7254,20.03894 C68.07727,19.693481 68.07727,19.13501 67.7254,18.789795 C67.37366,18.444214 66.80499,18.444214 66.453186,18.789795 C66.453186,18.789795 65.81714,19.414307 65.81714,19.414307 C65.46527,19.759644 65.46527,20.317993 65.81714,20.663574 C65.992615,20.835815 66.22293,20.92212 66.453186,20.92212 ZM63.49048,23.83142 C63.720795,23.83142 63.95105,23.744751 64.126526,23.572632 C64.126526,23.572632 64.762665,22.947998 64.762665,22.947998 C65.11444,22.602661 65.11444,22.044312 64.762665,21.69873 C64.4108,21.353271 63.842163,21.353271 63.49048,21.69873 C63.49048,21.69873 62.85431,22.323364 62.85431,22.323364 C62.50244,22.668945 62.50244,23.227295 62.85431,23.572632 C63.029785,23.744751 63.26007,23.83142 63.49048,23.83142 ZM43.69638,39.733154 C43.19879,39.733154 42.79663,40.12903 42.79663,40.616577 C42.79663,40.616577 42.79663,49.45105 42.79663,49.45105 C42.79663,49.9386 43.19879,50.334473 43.69638,50.334473 C44.19391,50.334473 44.59604,49.9386 44.59604,49.45105 C44.59604,49.45105 44.59604,40.616577 44.59604,40.616577 C44.59604,40.12903 44.193817,39.733154 43.69638,39.733154 ZM52.1062,22.911743 C52.200623,22.942749 52.296936,22.957642 52.390533,22.957642 C52.76758,22.957642 53.118378,22.723755 53.2435,22.353516 C53.2435,22.353516 53.849884,20.567993 53.849884,20.567993 C54.007263,20.105103 53.752686,19.605103 53.28125,19.450317 C52.8071,19.29419 52.3006,19.546753 52.144043,20.00879 C52.144043,20.00879 51.53766,21.794312 51.53766,21.794312 C51.380005,22.257202 51.634613,22.757202 52.1062,22.911743 ZM38.297974,39.733154 C37.800385,39.733154 37.398315,40.12903 37.398315,40.616577 C37.398315,40.616577 37.398315,49.45105 37.398315,49.45105 C37.398315,49.9386 37.800385,50.334473 38.297974,50.334473 C38.795563,50.334473 39.197693,49.9386 39.197693,49.45105 C39.197693,49.45105 39.197693,40.616577 39.197693,40.616577 C39.197693,40.12903 38.79541,39.733154 38.297974,39.733154 ZM53.923584,17.556274 C54.01886,17.588135 54.11432,17.602295 54.20877,17.602295 C54.585815,17.602295 54.93579,17.368286 55.061737,16.998169 C55.061737,16.998169 55.34616,16.159546 55.34616,16.159546 C55.50354,15.696899 55.2489,15.196899 54.777527,15.042114 C54.303375,14.886475 53.7977,15.138428 53.64023,15.60144 C53.64023,15.60144 53.35504,16.438965 53.35504,16.438965 C53.198425,16.901855 53.453003,17.40271 53.923584,17.556274 ZM32.899567,39.733154 C32.40204,39.733154 31.999908,40.12903 31.999908,40.616577 C31.999908,40.616577 31.999908,49.45105 31.999908,49.45105 C31.999908,49.9386 32.40204,50.334473 32.899567,50.334473 C33.397156,50.334473 33.799316,49.9386 33.799316,49.45105 C33.799316,49.45105 33.799316,40.616577 33.799316,40.616577 C33.799316,40.12903 33.397003,39.733154 32.899567,39.733154 ZM50.609924,27.32019 C50.704346,27.351196 50.80066,27.365356 50.894257,27.365356 C51.27124,27.365356 51.6221,27.131104 51.747223,26.760986 C51.747223,26.760986 52.03247,25.923462 52.03247,25.923462 C52.189026,25.46045 51.934387,24.959717 51.463806,24.805786 C50.98871,24.648438 50.483185,24.901245 50.325623,25.364136 C50.325623,25.364136 50.04129,26.202515 50.04129,26.202515 C49.883728,26.665405 50.138428,27.165405 50.609924,27.32019 ZM31.761414,25.923462 C31.761414,25.923462 32.0466,26.760986 32.0466,26.760986 C32.17163,27.131104 32.522522,27.365356 32.899567,27.365356 C32.993103,27.365356 33.0903,27.350098 33.1839,27.32019 C33.655334,27.165771 33.910004,26.66565 33.752625,26.202515 C33.752625,26.202515 33.4682,25.364136 33.4682,25.364136 C33.311646,24.901245 32.8006,24.651245 32.330017,24.80603 C31.859436,24.959717 31.604797,25.46045 31.761414,25.923462 ZM34.698975,60.935547 C34.201447,60.935547 33.799316,61.331543 33.799316,61.81909 C33.799316,61.81909 33.799316,67.11963 33.799316,67.11963 C33.799316,67.60742 34.201447,68.00305 34.698975,68.00305 C35.196533,68.00305 35.598694,67.60742 35.598694,67.11963 C35.598694,67.11963 35.598694,61.81909 35.598694,61.81909 C35.598694,61.331543 35.196533,60.935547 34.698975,60.935547 ZM43.69638,57.401978 C43.69638,57.401978 25.70169,57.401978 25.70169,57.401978 C24.213562,57.401978 23.002502,56.21289 23.002502,54.751587 C23.002502,54.751587 23.002502,35.31604 23.002502,35.31604 C23.002502,33.85498 24.213562,32.665894 25.70169,32.665894 C25.70169,32.665894 49.094788,32.668335 49.094788,32.668335 C49.59137,32.668335 49.994446,32.272705 49.994446,31.785156 C49.994446,31.297607 49.592285,30.901733 49.094788,30.901733 C49.094788,30.901733 25.70169,30.898926 25.70169,30.898926 C23.22113,30.898926 21.203003,32.880493 21.203003,35.316284 C21.203003,35.316284 21.203003,54.75183 21.203003,54.75183 C21.203003,57.187378 23.22107,59.168945 25.70169,59.168945 C25.70169,59.168945 43.69638,59.168945 43.69638,59.168945 C44.19391,59.168945 44.59604,58.773315 44.59604,58.2854 C44.59604,57.79785 44.193817,57.401978 43.69638,57.401978 ZM59.89154,41.5 C59.394012,41.5 58.991882,41.895996 58.991882,42.383545 C58.991882,42.383545 58.991882,54.751587 58.991882,54.751587 C58.991882,56.21289 57.78076,57.401978 56.292664,57.401978 C56.292664,57.401978 47.29541,57.401978 47.29541,57.401978 C46.79779,57.401978 46.39566,57.79785 46.39566,58.2854 C46.39566,58.2854 46.39566,67.11963 46.39566,67.11963 C46.39566,67.60742 46.79779,68.00305 47.29541,68.00305 C47.792908,68.00305 48.19507,67.60742 48.19507,67.11963 C48.19507,67.11963 48.19507,59.1687 48.19507,59.1687 C48.19507,59.1687 56.292664,59.1687 56.292664,59.1687 C58.773132,59.1687 60.79132,57.187134 60.79132,54.751587 C60.79132,54.751587 60.79132,42.383545 60.79132,42.383545 C60.79126,41.895996 60.388977,41.5 59.89154,41.5 ZM22.102661,27.365356 C22.333069,27.365356 22.563354,27.278687 22.73883,27.106445 C23.090698,26.760986 23.090698,26.202515 22.73883,25.8573 C22.73883,25.8573 22.102661,25.232666 22.102661,25.232666 C21.750977,24.887085 21.182251,24.887085 20.830475,25.232666 C20.47876,25.578125 20.478699,26.136353 20.830475,26.481812 C20.830475,26.481812 21.466614,27.106445 21.466614,27.106445 C21.642029,27.278687 21.872437,27.365356 22.102661,27.365356 ZM67.37366,30.944092 C67.37366,30.944092 62.40265,29.31665 62.40265,29.31665 C62.40265,29.31665 60.744415,24.435547 60.744415,24.435547 C60.62204,24.074219 60.279236,23.83142 59.89145,23.83142 C59.503662,23.83142 59.159943,24.074219 59.038483,24.435547 C59.038483,24.435547 57.38025,29.31665 57.38025,29.31665 C57.38025,29.31665 52.40915,30.944092 52.40915,30.944092 C52.0412,31.064209 51.793762,31.40149 51.793762,31.78247 C51.793762,32.163086 52.0412,32.499756 52.40915,32.620728 C52.40915,32.620728 57.38025,34.247925 57.38025,34.247925 C57.38025,34.247925 59.038483,39.12903 59.038483,39.12903 C59.159943,39.490234 59.503662,39.733154 59.89145,39.733154 C60.279236,39.733154 60.62204,39.490234 60.744415,39.12903 C60.744415,39.12903 62.40265,34.247925 62.40265,34.247925 C62.40265,34.247925 67.37366,32.620728 67.37366,32.620728 C67.74164,32.499756 67.989136,32.163086 67.989136,31.78247 C67.989136,31.40149 67.74164,31.064209 67.37366,30.944092 ZM61.406647,32.710693 C61.137695,32.799072 60.92621,33.00586 60.838013,33.27002 C60.838013,33.27002 59.89154,36.056396 59.89154,36.056396 C59.89154,36.056396 58.945007,33.27002 58.945007,33.27002 C58.856903,33.00586 58.645325,32.799316 58.376404,32.710693 C58.376404,32.710693 55.538635,31.78247 55.538635,31.78247 C55.538635,31.78247 58.376404,30.85376 58.376404,30.85376 C58.645325,30.765503 58.856903,30.558716 58.945007,30.294556 C58.945007,30.294556 59.89154,27.508179 59.89154,27.508179 C59.89154,27.508179 60.838013,30.294556 60.838013,30.294556 C60.92621,30.558716 61.137695,30.765503 61.406647,30.85376 C61.406647,30.85376 64.244385,31.78247 64.244385,31.78247 C64.244385,31.78247 61.406647,32.710693 61.406647,32.710693 ZM18.547058,21.741455 C18.19519,21.396729 17.625732,21.396729 17.27478,21.741455 C16.923004,22.08667 16.923004,22.645874 17.27478,22.990356 C17.27478,22.990356 18.459717,24.154785 18.459717,24.154785 C18.635193,24.327026 18.8656,24.413696 19.095856,24.413696 C19.326172,24.413696 19.556519,24.327026 19.731934,24.154785 C20.08371,23.809326 20.08371,23.250366 19.731934,22.90564 C19.731934,22.90564 18.547058,21.741455 18.547058,21.741455 ZM29.94394,20.567993 C29.94394,20.567993 30.550323,22.353516 30.550323,22.353516 C30.675354,22.723755 31.026245,22.957642 31.40329,22.957642 C31.496826,22.957642 31.5932,22.942749 31.687714,22.911743 C32.15912,22.757202 32.413727,22.257202 32.256348,21.794312 C32.256348,21.794312 31.649963,20.00879 31.649963,20.00879 C31.494324,19.546753 30.986877,19.296753 30.512695,19.450317 C30.041077,19.605103 29.786469,20.105103 29.94394,20.567993 ZM41.89685,27.365356 C42.39441,27.365356 42.79657,26.96936 42.79657,26.481812 C42.79657,26.481812 42.79657,25.598389 42.79657,25.598389 C42.79657,25.11084 42.39441,24.714966 41.89685,24.714966 C41.399323,24.714966 40.997192,25.11084 40.997192,25.598389 C40.997192,25.598389 40.997192,26.481812 40.997192,26.481812 C40.997192,26.96936 41.399323,27.365356 41.89685,27.365356 ZM28.731934,16.998169 C28.857971,17.368042 29.207947,17.602295 29.58496,17.602295 C29.679443,17.602295 29.775696,17.58728 29.870178,17.556274 C30.34076,17.40271 30.595337,16.901855 30.438782,16.438965 C30.438782,16.438965 30.153595,15.601074 30.153595,15.601074 C29.99704,15.138428 29.485962,14.888428 29.016357,15.042114 C28.544922,15.196655 28.290283,15.696655 28.447754,16.159546 C28.447754,16.159546 28.731934,16.998169 28.731934,16.998169 ZM41.89685,22.947998 C42.39441,22.947998 42.79657,22.552368 42.79657,22.064453 C42.79657,22.064453 42.79657,20.297607 42.79657,20.297607 C42.79657,19.810059 42.39441,19.414307 41.89685,19.414307 C41.399323,19.414307 40.997192,19.810059 40.997192,20.297607 C40.997192,20.297607 40.997192,22.064453 40.997192,22.064453 C40.997192,22.552368 41.399323,22.947998 41.89685,22.947998 ZM15.541016,18.789795 C15.189148,18.444214 14.620544,18.444214 14.268799,18.789795 C13.917114,19.135254 13.917114,19.693481 14.268799,20.03894 C14.268799,20.03894 14.904968,20.663574 14.904968,20.663574 C15.080353,20.835815 15.3107605,20.92212 15.541016,20.92212 C15.771271,20.92212 16.001678,20.835815 16.177155,20.663574 C16.52887,20.317993 16.52887,19.759644 16.177155,19.414307 C16.177155,19.414307 15.541016,18.789795 15.541016,18.789795 Z"/>
</svg>