<svg xmlns="http://www.w3.org/2000/svg"
 xmlns:xlink="http://www.w3.org/1999/xlink"
 width="80px" height="80px"  viewBox="0 0 80 80">
<path fill-rule="evenodd"  fill="#fab91e"
 d="M2.0,1.9998779 C2.0,1.9998779 3.999939,1.9998779 3.999939,1.9998779 C3.999939,1.9998779 3.999939,13.999756 3.999939,13.999756 C3.999939,13.999756 2.0,13.999756 2.0,13.999756 C2.0,13.999756 2.0,1.9998779 2.0,1.9998779 ZM13.999939,1.9998779 C13.999939,1.9998779 13.999939,4.0 13.999939,4.0 C13.999939,4.0 2.0,4.0 2.0,4.0 C2.0,4.0 2.0,1.9998779 2.0,1.9998779 C2.0,1.9998779 13.999939,1.9998779 13.999939,1.9998779 ZM78.99994,78.99988 C78.99994,78.99988 77.0,78.99988 77.0,78.99988 C77.0,78.99988 77.0,66.999756 77.0,66.999756 C77.0,66.999756 78.99994,66.999756 78.99994,66.999756 C78.99994,66.999756 78.99994,78.99988 78.99994,78.99988 ZM67.0,78.99988 C67.0,78.99988 67.0,76.999756 67.0,76.999756 C67.0,76.999756 78.99994,76.999756 78.99994,76.999756 C78.99994,76.999756 78.99994,78.99988 78.99994,78.99988 C78.99994,78.99988 67.0,78.99988 67.0,78.99988 ZM78.99994,1.9998779 C78.99994,1.9998779 77.0,1.9998779 77.0,1.9998779 C77.0,1.9998779 77.0,13.999756 77.0,13.999756 C77.0,13.999756 78.99994,13.999756 78.99994,13.999756 C78.99994,13.999756 78.99994,1.9998779 78.99994,1.9998779 ZM67.0,1.9998779 C67.0,1.9998779 67.0,4.0 67.0,4.0 C67.0,4.0 78.99994,4.0 78.99994,4.0 C78.99994,4.0 78.99994,1.9998779 78.99994,1.9998779 C78.99994,1.9998779 67.0,1.9998779 67.0,1.9998779 ZM2.0,78.99988 C2.0,78.99988 3.999939,78.99988 3.999939,78.99988 C3.999939,78.99988 3.999939,66.999756 3.999939,66.999756 C3.999939,66.999756 2.0,66.999756 2.0,66.999756 C2.0,66.999756 2.0,78.99988 2.0,78.99988 ZM13.999939,78.99988 C13.999939,78.99988 13.999939,76.999756 13.999939,76.999756 C13.999939,76.999756 2.0,76.999756 2.0,76.999756 C2.0,76.999756 2.0,78.99988 2.0,78.99988 C2.0,78.99988 13.999939,78.99988 13.999939,78.99988 ZM56.991882,18.547485 C58.234497,18.988281 59.237793,19.994629 59.67859,21.237793 C59.80658,21.601074 60.147583,21.82727 60.510498,21.82727 C60.60852,21.82727 60.708313,21.810303 60.805542,21.776001 C61.26471,21.613525 61.50586,21.10791 61.343384,20.64856 C60.718994,18.881348 59.347412,17.508423 57.58264,16.881836 C57.122498,16.720215 56.618164,16.959717 56.454773,17.418945 C56.29242,17.879395 56.531677,18.384155 56.991882,18.547485 ZM48.90869,42.92639 C49.0412,42.997925 49.185913,43.03418 49.331726,43.03418 C49.477478,43.03418 49.62317,42.997925 49.7547,42.92639 C59.80658,37.441284 65.22955,28.417725 65.22955,22.712646 C65.22955,17.352783 60.871826,12.993286 55.51416,12.993286 C51.75171,12.993286 48.29297,15.197998 46.7041,18.610962 C46.497437,19.053589 46.689087,19.579346 47.130737,19.7854 C47.573242,19.992188 48.098816,19.799438 48.304504,19.357544 C49.60559,16.564575 52.435303,14.76062 55.514282,14.76062 C59.897705,14.76062 63.463196,18.327393 63.463196,22.712646 C63.463196,27.899902 58.187744,36.142456 49.331787,41.139893 C40.47577,36.142456 35.200256,27.899902 35.200256,22.712646 C35.200256,18.327393 38.766785,14.76062 43.149292,14.76062 C44.25592,14.76062 45.326416,14.983154 46.332336,15.423096 C46.779236,15.61853 47.29944,15.415283 47.495483,14.968262 C47.690674,14.521118 47.486633,14.00061 47.039795,13.804565 C45.810425,13.266357 44.501404,12.993286 43.149292,12.993286 C37.79248,12.993286 33.433838,17.352783 33.433838,22.712646 C33.433838,28.417725 38.857727,37.441284 48.90869,42.92639 ZM25.484924,46.56836 C25.484924,46.56836 32.55066,46.56836 32.55066,46.56836 C33.580444,46.56836 35.332764,47.88318 36.878357,49.04236 C38.816162,50.496704 40.64612,51.86975 42.26593,51.86975 C42.26593,51.86975 47.565247,51.86975 47.565247,51.86975 C48.906006,51.86975 49.572754,52.478516 49.590454,52.494263 C49.762695,52.666748 49.98889,52.753174 50.214905,52.753174 C50.44104,52.753174 50.66626,52.666748 50.839294,52.494263 C51.183777,52.148804 51.183777,51.589844 50.839294,51.245117 C50.7218,51.12854 49.637207,50.102417 47.565247,50.102417 C47.565247,50.102417 42.26593,50.102417 42.26593,50.102417 C41.23529,50.102417 39.483765,48.787964 37.938232,47.628662 C35.99951,46.174316 34.169556,44.80139 32.55066,44.80139 C32.55066,44.80139 25.484924,44.80139 25.484924,44.80139 C24.99646,44.80139 24.601746,45.19702 24.601746,45.684814 C24.601746,46.17273 24.99646,46.56836 25.484924,46.56836 ZM18.41925,60.26367 C18.41925,59.532715 17.82483,58.938354 17.094421,58.938354 C16.364075,58.938354 15.769653,59.532715 15.769653,60.26367 C15.769653,60.994263 16.364075,61.588745 17.094421,61.588745 C17.82483,61.588745 18.41925,60.994263 18.41925,60.26367 ZM66.52258,50.102783 C66.05011,49.2854 65.28876,48.70044 64.37738,48.456543 C63.464966,48.210938 62.51288,48.336304 61.751465,48.779907 C61.751465,48.779907 51.585693,53.729614 51.585693,53.729614 C50.00641,54.520386 48.410583,54.520386 44.91565,54.520386 C41.49756,54.520386 36.280457,53.657104 36.22827,53.649048 C35.74695,53.570435 35.292114,53.894653 35.21173,54.37451 C35.132202,54.8562 35.457214,55.311157 35.937622,55.391724 C36.157593,55.428833 41.35083,56.287598 44.915466,56.287598 C48.58252,56.287598 50.423218,56.287598 52.367188,55.314697 C52.367188,55.314697 62.579834,50.339478 62.579834,50.339478 C63.42151,49.85193 64.50525,50.14148 64.99274,50.986206 C65.228516,51.395386 65.29047,51.871582 65.16852,52.327637 C65.04663,52.78357 64.75427,53.164307 64.32062,53.41516 C64.32062,53.41516 52.379517,60.85034 52.379517,60.85034 C52.354004,60.86609 49.80664,62.472412 44.032227,62.472412 C39.02533,62.472412 31.290161,58.208496 31.17871,58.147583 C31.099243,58.107666 29.183594,57.17102 25.48468,57.17102 C24.996277,57.17102 24.601501,57.567017 24.601501,58.054565 C24.601501,58.54236 24.996277,58.938354 25.48468,58.938354 C28.69696,58.938354 30.351257,59.71045 30.354736,59.71045 C30.68872,59.895996 38.566895,64.23938 44.032227,64.23938 C50.40808,64.23938 53.237,62.401855 53.33069,62.33899 C53.33069,62.33899 65.22937,54.93042 65.22937,54.93042 C66.046265,54.45862 66.63098,53.696167 66.87488,52.78528 C67.11975,51.872437 66.99426,50.920044 66.52258,50.102783 ZM20.185608,41.267212 C20.185608,41.267212 14.886353,41.267212 14.886353,41.267212 C14.397888,41.267212 14.003174,41.66284 14.003174,42.150635 C14.003174,42.638184 14.397888,43.03418 14.886353,43.03418 C14.886353,43.03418 20.185608,43.03418 20.185608,43.03418 C20.672302,43.03418 21.068787,43.43091 21.068787,43.917603 C21.068787,43.917603 21.068787,63.355713 21.068787,63.355713 C21.068787,63.84265 20.672302,64.23938 20.185608,64.23938 C20.185608,64.23938 14.886353,64.23938 14.886353,64.23938 C14.397888,64.23938 14.003174,64.63501 14.003174,65.122925 C14.003174,65.61047 14.397888,66.00635 14.886353,66.00635 C14.886353,66.00635 20.185608,66.00635 20.185608,66.00635 C21.646423,66.00635 22.835205,64.816895 22.835205,63.355713 C22.835205,63.355713 22.835205,43.917847 22.835205,43.917847 C22.835205,42.4563 21.646423,41.267212 20.185608,41.267212 Z"/>
</svg>