<svg xmlns="http://www.w3.org/2000/svg" width="250" height="200" viewBox="0 0 390 300">
	<style type="text/css">
		.st0{fill:#f8b900;}
	</style>
	<path class="st0" d="M105.95,88.61C107.59,84.86 108.93,80.95 110.93,77.4C131.1,41.71 160.17,16.49 199.5,4.15C218.89,-1.93 238.47,-1.27 257.76,5.77C283.71,15.24 291.38,35.75 289.18,59.63C286.73,86.2 277.02,110.22 261.46,131.9C260.63,133.05 260.24,135.05 260.58,136.43C267.63,165.48 257.27,188.86 236.51,208.35C216.4,227.23 192.28,235.53 164.64,232.82C141.32,230.53 125.91,209.6 129.6,184.73C130.52,178.53 132.58,172.44 134.68,166.5C135.84,163.21 135.5,160.67 134.23,157.52C130.6,148.61 126.29,139.74 124.39,130.42C120.16,109.58 127.33,91.56 141.45,76.33C159.39,56.98 180.48,42.69 207.07,38.06C216.3,36.45 225.54,35.95 234.74,38.36C247.51,41.71 253.29,50.31 252.19,63.49C250.94,78.49 244.52,91.6 237.83,104.65C234.41,111.31 230.76,117.85 227.43,124.55C224.3,130.84 224.86,132.92 230.2,137.48C230.96,138.12 231.74,138.77 232.56,139.32C243.86,146.95 243.97,159.02 238.6,168.92C235.66,174.35 231.62,179.86 226.69,183.41C214.57,192.12 201.79,199.93 188.97,207.61C185.25,209.84 180.58,210.75 176.21,211.62C167.4,213.38 158.82,208.48 156.19,199.04C154.35,192.45 153.44,185.15 154.13,178.38C157.18,148.9 165.04,120.82 181.03,95.47C181.64,94.5 182.29,93.56 183.67,91.48C179.23,106.61 174.57,120.27 171.31,134.25C167.75,149.58 165.39,165.19 162.75,180.72C162.29,183.43 162.85,186.36 163.23,189.15C164.74,200.22 170.14,201.89 180.77,200.06C183.81,199.54 186.8,198.1 189.55,196.61C203.89,188.81 215.38,177.85 224.26,164.22C228.47,157.76 227.94,155.01 222.02,150.1C218.7,147.34 215.03,144.99 211.53,142.44C203.53,136.63 202.57,133.08 207.31,124.29C210.23,118.87 213.85,113.83 216.8,108.43C221.43,99.96 225.85,91.38 230.15,82.74C231.48,80.09 232.33,77.15 233.07,74.25C237.45,57.23 230.7,53.93 216.16,54.36C197.83,54.9 181.55,61.64 167.25,73.24C157.35,81.28 148.64,90.37 141.48,100.94C133.88,112.15 132.16,124.18 136.28,137.06C138.71,144.65 141.52,152.14 143.48,159.85C144.22,162.76 143.7,166.39 142.67,169.3C139.19,179.05 135.75,188.72 137.16,199.35C138.84,211.97 146.29,219.59 157.93,223.72C174.29,229.51 190.05,227.8 205.04,219.51C232.35,204.4 251,182.84 254.32,150.62C254.88,145.27 253.35,139.73 253.17,134.26C253.07,131.1 253.03,127.61 254.2,124.77C261.91,106.05 268.41,87.03 270.3,66.72C270.62,63.25 270.82,59.71 270.56,56.24C268.44,27.64 253.5,20.81 231.58,17.99C199.37,13.85 172.97,27.68 148.53,46.52C133.41,58.18 120.37,71.95 108.55,86.91C107.97,87.64 107.38,88.35 106.8,89.08C106.52,88.92 106.23,88.77 105.95,88.61"/>
</svg>